<?xml version="1.0" encoding="iso-8859-1"?>
<!-- Generator: Adobe Illustrator 17.1.0, SVG Export Plug-In . SVG Version: 6.00 Build 0)  -->
<!DOCTYPE svg PUBLIC "-//W3C//DTD SVG 1.1//EN" "http://www.w3.org/Graphics/SVG/1.1/DTD/svg11.dtd">
<svg version="1.1" id="Layer_1" xmlns="http://www.w3.org/2000/svg" xmlns:xlink="http://www.w3.org/1999/xlink" x="0px" y="0px" width="10px" height="7px"
	 viewBox="0 0 10 7" style="enable-background:new 0 0 10 7;" xml:space="preserve">
<path style="fill-rule:evenodd;clip-rule:evenodd;" d="M9.792,1.243L9.792,1.243l-5.47,5.54l0,0
	c-0.129,0.13-0.308,0.212-0.505,0.212c-0.197,0-0.375-0.081-0.505-0.212l0,0L0.221,3.652l0,0C0.092,3.52,0.012,3.34,0.012,3.14
	c0-0.399,0.319-0.722,0.714-0.722c0.197,0,0.375,0.081,0.505,0.211l0,0l2.587,2.62l4.965-5.028l0,0
	C8.912,0.09,9.09,0.009,9.287,0.009C9.681,0.009,10,0.333,10,0.732C10,0.932,9.921,1.112,9.792,1.243z"/>
</svg>
