<?xml version="1.0" encoding="utf-8"?>
<!-- Generator: Adobe Illustrator 17.1.0, SVG Export Plug-In . SVG Version: 6.00 Build 0)  -->
<!DOCTYPE svg PUBLIC "-//W3C//DTD SVG 1.1//EN" "http://www.w3.org/Graphics/SVG/1.1/DTD/svg11.dtd">
<svg version="1.1" id="Слой_1" xmlns="http://www.w3.org/2000/svg" xmlns:xlink="http://www.w3.org/1999/xlink" x="0px" y="0px"
	 viewBox="0 0 157 29" enable-background="new 0 0 157 29" xml:space="preserve">
<path fill="#0D0F0F" d="M0.2,26h12v3h-12V26z"/>
<path fill="#0D0F0F" d="M0.2,17h3v12h-3V17z"/>
<path fill="#0D0F0F" d="M26.2,17h3v12h-3V17z"/>
<path fill="#0D0F0F" d="M17.2,26h12v3h-12V26z"/>
<path fill="#0D0F0F" d="M17.2,0h12v3h-12V0z"/>
<path fill="#0D0F0F" d="M26.2,0h3v12h-3V0z"/>
<path fill="#0D0F0F" d="M0.2,0h3v12h-3V0z"/>
<path fill="#0D0F0F" d="M0.2,0h12v3h-12V0z"/>
<path fill="#0D0F0F" d="M12.2,12h5v5h-5V12z"/>
<path fill="#0D0F0F" d="M46.6,17.9c-0.8-0.8-1.2-1.8-1.2-3.1s0.4-2.3,1.3-3.1c0.8-0.8,1.8-1.1,3-1.1c1.5,0,2.7,0.6,3.7,1.8l1.9-2.2
	c-1.5-1.7-3.5-2.6-5.8-2.6c-2.1,0-3.8,0.7-5.2,2.1c-1.4,1.4-2.1,3.1-2.1,5.2s0.7,3.8,2.1,5.2c1.4,1.4,3.2,2,5.3,2s4-0.9,5.6-2.7
	l-2-2.1c-1,1.2-2.2,1.8-3.8,1.8C48.4,19.1,47.4,18.7,46.6,17.9z"/>
<path fill="#0D0F0F" d="M71.9,21.8l-6-14h-3l-6,14h3.3l1.3-3h5.9l1.3,3H71.9z M66.1,16.1h-3.5l1.8-4.1L66.1,16.1z"/>
<path fill="#0D0F0F" d="M78.9,10.3c1.3,0,2.5,0.5,3.8,1.4l1.6-2.3c-0.7-0.6-1.5-1-2.4-1.4C80.9,7.7,80,7.5,79,7.5
	c-1.4,0-2.6,0.4-3.6,1.1c-1,0.7-1.4,1.7-1.4,3.1s0.4,2.3,1.1,2.9s1.9,1.1,3.6,1.5c1,0.3,1.7,0.5,2.1,0.8c0.3,0.2,0.5,0.6,0.5,1
	s-0.2,0.8-0.5,1c-0.3,0.2-0.8,0.4-1.3,0.4c-1.3,0-2.7-0.7-4.2-2l-1.9,2.3c1.8,1.6,3.8,2.5,6,2.5c1.5,0,2.8-0.4,3.7-1.2
	c0.9-0.8,1.4-1.8,1.4-3c0-1.3-0.4-2.2-1.1-2.9c-0.7-0.7-1.8-1.1-3.1-1.5c-1.3-0.3-2.2-0.6-2.5-0.8c-0.4-0.2-0.5-0.6-0.5-1
	c0-0.4,0.1-0.7,0.4-1C78,10.4,78.4,10.3,78.9,10.3L78.9,10.3z"/>
<path fill="#0D0F0F" d="M91.7,17.9c-0.8-0.8-1.2-1.8-1.2-3.1s0.4-2.3,1.3-3.1c0.8-0.8,1.8-1.1,3-1.1c1.5,0,2.7,0.6,3.7,1.8l1.9-2.2
	c-1.5-1.7-3.5-2.6-5.8-2.6c-2.1,0-3.8,0.7-5.2,2.1s-2.1,3.1-2.1,5.2s0.7,3.8,2.1,5.2c1.4,1.4,3.2,2,5.3,2s4-0.9,5.6-2.7l-2-2.1
	c-1,1.2-2.2,1.8-3.8,1.8C93.5,19.1,92.5,18.7,91.7,17.9z"/>
<path fill="#0D0F0F" d="M117,21.8l-6-14h-3l-6,14h3.3l1.3-3h5.9l1.3,3H117z M111.2,16.1h-3.5l1.8-4.1L111.2,16.1z"/>
<path fill="#0D0F0F" d="M124.6,7.9h-4.9v14h4.8c2.7,0,4.7-0.6,6-1.9c1.3-1.3,1.9-3,1.9-5.2c0-2.2-0.7-3.9-2-5.1S127.1,7.9,124.6,7.9
	L124.6,7.9z M124.7,19.1h-2v-8.5h1.7c1.6,0,2.8,0.4,3.5,1.1c0.8,0.7,1.2,1.8,1.2,3.2c0,1.4-0.4,2.4-1.2,3.1
	C127.2,18.7,126.2,19.1,124.7,19.1L124.7,19.1z"/>
<path fill="#0D0F0F" d="M136,21.8h3.1v-14H136V21.8z"/>
<path fill="#0D0F0F" d="M156.8,21.8l-6-14h-3l-6,14h3.3l1.3-3h5.9l1.3,3H156.8z M151,16.1h-3.5l1.8-4.1L151,16.1z"/>
</svg>
