<?xml version="1.0" encoding="UTF-8" ?>
<!DOCTYPE svg PUBLIC "-//W3C//DTD SVG 1.1//EN" "http://www.w3.org/Graphics/SVG/1.1/DTD/svg11.dtd">
<svg width="179pt" height="91pt" viewBox="0 0 179 91" version="1.1" xmlns="http://www.w3.org/2000/svg">
<g id="#ffffffff">
<path fill="#ffffff" opacity="1.00" d=" M 86.44 0.00 L 91.55 0.00 C 103.09 0.54 114.43 5.19 122.80 13.20 C 131.83 21.58 137.23 33.52 138.04 45.78 C 131.99 45.82 125.94 45.79 119.89 45.80 C 119.02 38.33 115.69 31.09 110.03 26.05 C 101.30 17.86 87.55 15.78 76.79 21.01 C 67.11 25.45 60.45 35.27 59.40 45.81 C 53.35 45.77 47.30 45.85 41.24 45.76 C 42.02 35.00 46.17 24.46 53.40 16.39 C 61.72 6.85 73.86 1.03 86.44 0.00 Z" />
<path fill="#ffffff" opacity="1.00" d=" M 0.00 57.68 C 0.38 53.92 6.02 54.47 5.93 58.00 C 6.21 61.48 1.44 61.72 0.00 59.15 L 0.00 57.68 Z" />
<path fill="#ffffff" opacity="1.00" d=" M 77.18 55.27 C 78.78 55.27 80.38 55.26 81.99 55.26 C 82.00 57.66 82.00 60.07 82.00 62.47 C 85.82 61.72 90.60 62.53 92.51 66.34 C 94.62 70.78 94.52 77.11 90.49 80.45 C 86.60 83.27 81.41 82.19 77.22 80.68 C 77.12 72.21 77.20 63.74 77.18 55.27 M 82.10 66.93 C 81.95 70.39 82.00 73.85 82.00 77.31 C 84.17 77.49 87.34 78.15 88.41 75.61 C 89.13 73.39 89.19 70.82 88.29 68.66 C 87.12 66.33 84.21 66.97 82.10 66.93 Z" />
<path fill="#ffffff" opacity="1.00" d=" M 113.17 55.25 C 115.02 54.27 117.37 55.93 117.30 57.94 C 117.43 60.23 114.44 61.76 112.67 60.30 C 110.83 59.12 111.23 56.07 113.17 55.25 Z" />
<path fill="#ffffff" opacity="1.00" d=" M 132.77 55.26 C 134.38 55.26 135.98 55.27 137.59 55.27 C 137.57 63.73 137.61 72.18 137.58 80.63 C 133.25 82.28 127.72 83.34 123.86 80.11 C 120.23 76.56 120.17 70.47 122.35 66.15 C 124.34 62.45 129.02 61.79 132.80 62.46 C 132.76 60.06 132.76 57.66 132.77 55.26 M 126.60 68.45 C 125.51 70.66 125.63 73.39 126.38 75.69 C 127.53 78.15 130.60 77.49 132.76 77.30 C 132.77 73.87 132.79 70.45 132.70 67.03 C 130.64 66.96 127.86 66.31 126.60 68.45 Z" />
<path fill="#ffffff" opacity="1.00" d=" M 10.18 57.20 C 11.78 57.20 13.39 57.20 14.99 57.19 C 15.00 59.06 15.00 60.93 15.01 62.81 C 17.38 62.80 19.75 62.80 22.12 62.80 C 22.12 64.33 22.12 65.87 22.12 67.40 C 19.75 67.40 17.39 67.40 15.03 67.38 C 15.09 70.46 14.67 73.60 15.37 76.62 C 17.56 78.26 20.25 76.65 22.54 76.06 C 22.98 77.44 23.43 78.82 23.88 80.20 C 20.74 81.82 16.91 82.68 13.55 81.23 C 11.17 80.20 10.11 77.49 10.19 75.04 C 10.13 69.10 10.20 63.15 10.18 57.20 Z" />
<path fill="#ffffff" opacity="1.00" d=" M 26.52 67.40 C 28.03 61.91 35.64 60.65 39.70 64.00 C 42.54 66.48 42.45 70.53 42.60 73.98 C 38.57 74.04 34.54 73.93 30.51 74.07 C 32.08 78.74 37.68 77.39 41.16 75.98 C 41.64 77.39 42.12 78.81 42.59 80.22 C 38.34 82.07 32.90 83.02 28.90 80.13 C 25.27 77.08 25.42 71.59 26.52 67.40 M 30.53 70.35 C 32.98 70.42 35.43 70.42 37.88 70.32 C 37.20 68.62 36.24 66.46 33.99 66.82 C 31.90 66.72 31.12 68.74 30.53 70.35 Z" />
<path fill="#ffffff" opacity="1.00" d=" M 46.24 63.79 C 50.34 62.19 55.02 61.50 59.11 63.52 C 63.02 62.18 68.29 61.04 71.18 64.91 C 74.45 69.79 72.73 76.06 73.18 81.56 C 71.57 81.59 69.97 81.60 68.36 81.62 C 68.21 77.43 68.70 73.19 68.03 69.03 C 67.27 66.11 63.82 66.98 61.61 66.98 C 62.35 71.82 62.09 76.73 62.10 81.61 C 60.50 81.60 58.90 81.60 57.29 81.60 C 57.15 77.42 57.66 73.18 56.97 69.03 C 56.33 66.35 53.25 66.87 51.18 66.96 C 51.06 71.83 51.13 76.70 51.13 81.57 C 49.50 81.59 47.87 81.60 46.24 81.62 C 46.23 75.68 46.24 69.74 46.24 63.79 Z" />
<path fill="#ffffff" opacity="1.00" d=" M 97.18 63.77 C 101.10 62.15 105.50 61.71 109.58 63.01 C 109.01 64.45 108.45 65.90 107.90 67.34 C 105.98 67.00 104.03 66.86 102.08 66.92 C 101.91 71.82 102.06 76.73 101.97 81.63 C 100.37 81.61 98.77 81.60 97.17 81.59 C 97.18 75.65 97.17 69.71 97.18 63.77 Z" />
<path fill="#ffffff" opacity="1.00" d=" M 143.94 64.95 C 147.60 60.87 153.72 62.13 158.29 63.71 C 158.19 70.48 158.49 77.26 158.16 84.02 C 158.03 87.94 154.47 90.63 150.81 91.00 L 147.74 91.00 C 145.81 90.59 143.93 89.99 142.06 89.40 C 142.45 87.96 142.85 86.54 143.25 85.11 C 145.76 85.73 148.33 86.69 150.95 86.21 C 153.06 85.90 153.09 83.49 153.81 81.95 C 150.30 82.38 146.01 82.41 143.70 79.22 C 140.85 75.13 140.80 68.90 143.94 64.95 M 147.36 68.30 C 146.17 70.57 146.26 73.47 147.22 75.81 C 148.39 78.08 151.33 77.49 153.39 77.33 C 153.42 73.86 153.44 70.38 153.34 66.91 C 151.34 67.00 148.70 66.36 147.36 68.30 Z" />
<path fill="#ffffff" opacity="1.00" d=" M 165.59 63.64 C 168.47 61.71 172.58 61.70 175.51 63.52 C 177.84 64.99 178.52 67.85 179.00 70.38 L 179.00 73.97 C 174.92 74.03 170.83 73.90 166.75 74.19 C 168.84 78.66 174.02 77.30 177.72 76.05 C 178.14 77.47 178.57 78.89 178.99 80.32 C 174.99 81.85 170.27 82.88 166.28 80.75 C 163.52 79.29 162.38 76.02 162.33 73.06 C 162.17 69.71 162.70 65.79 165.59 63.64 M 166.96 70.32 C 169.42 70.41 171.88 70.42 174.34 70.34 C 173.79 68.41 172.33 66.25 169.98 66.88 C 168.10 66.94 167.64 68.97 166.96 70.32 Z" />
<path fill="#ffffff" opacity="1.00" d=" M 0.47 62.80 C 2.09 62.80 3.71 62.80 5.32 62.80 C 5.05 68.56 5.30 74.33 5.20 80.10 C 5.16 82.84 1.69 81.47 0.00 81.76 L 0.00 81.27 C 0.15 80.99 0.45 80.44 0.60 80.17 C 0.45 74.38 0.45 68.59 0.47 62.80 Z" />
<path fill="#ffffff" opacity="1.00" d=" M 111.94 62.80 C 113.57 62.80 115.20 62.80 116.82 62.80 C 116.82 69.07 116.82 75.33 116.82 81.60 C 115.20 81.60 113.59 81.60 111.97 81.61 C 111.91 75.34 111.95 69.07 111.94 62.80 Z" />
</g>
</svg>
