<?xml version="1.0" encoding="utf-8"?>
<!-- Generator: Adobe Illustrator 17.1.0, SVG Export Plug-In . SVG Version: 6.00 Build 0)  -->
<!DOCTYPE svg PUBLIC "-//W3C//DTD SVG 1.1//EN" "http://www.w3.org/Graphics/SVG/1.1/DTD/svg11.dtd">
<svg version="1.1" id="Слой_1" xmlns="http://www.w3.org/2000/svg" xmlns:xlink="http://www.w3.org/1999/xlink" x="0px" y="0px"
	 viewBox="0 0 56 56" enable-background="new 0 0 56 56" xml:space="preserve">
<path fill="#0D0F0F" d="M16.7,31.3c0,3.9,2.4,6,5.1,6c2.4,0,4.3-1.9,4.3-4.2c0-2.4-1.6-4-3.9-4c-0.4,0-1,0.1-1.1,0.1
	c0.2-2.5,2.6-5.7,5.2-7.4l-3-2.4C19.5,22,16.7,26.5,16.7,31.3z M29.7,31.3c0,3.9,2.4,6,5.1,6c2.4,0,4.4-1.9,4.4-4.2c0-2.4-1.7-4-4-4
	c-0.4,0-1,0.1-1.1,0.1c0.3-2.5,2.6-5.7,5.2-7.4l-3-2.4C32.6,22,29.7,26.5,29.7,31.3z"/>
<line fill="none" stroke="#0D0F0F" stroke-width="2" stroke-miterlimit="10" x1="1" y1="6" x2="1" y2="0"/>
<line fill="none" stroke="#0D0F0F" stroke-width="2" stroke-miterlimit="10" x1="6" y1="1" x2="0" y2="1"/>
<line fill="none" stroke="#0D0F0F" stroke-width="2" stroke-miterlimit="10" x1="6" y1="55" x2="0" y2="55"/>
<line fill="none" stroke="#0D0F0F" stroke-width="2" stroke-miterlimit="10" x1="1" y1="50" x2="1" y2="56"/>
<line fill="none" stroke="#0D0F0F" stroke-width="2" stroke-miterlimit="10" x1="55" y1="50" x2="55" y2="56"/>
<line fill="none" stroke="#0D0F0F" stroke-width="2" stroke-miterlimit="10" x1="50" y1="55" x2="56" y2="55"/>
<line fill="none" stroke="#0D0F0F" stroke-width="2" stroke-miterlimit="10" x1="50" y1="1" x2="56" y2="1"/>
<line fill="none" stroke="#0D0F0F" stroke-width="2" stroke-miterlimit="10" x1="55" y1="6" x2="55" y2="0"/>
</svg>
