<?xml version="1.0" encoding="iso-8859-1"?>
<!-- Generator: Adobe Illustrator 17.1.0, SVG Export Plug-In . SVG Version: 6.00 Build 0)  -->
<!DOCTYPE svg PUBLIC "-//W3C//DTD SVG 1.1//EN" "http://www.w3.org/Graphics/SVG/1.1/DTD/svg11.dtd">
<svg version="1.1" id="Layer_1" xmlns="http://www.w3.org/2000/svg" xmlns:xlink="http://www.w3.org/1999/xlink" x="0px" y="0px" width='32' height='32'
	 viewBox="0 0 35 35" style="enable-background:new 0 0 35 35;" xml:space="preserve">
<g id="Magnify_Glass_x40_2x.png">
	<g>
		<path fill="#fff" d="M34.704,33.64l-8.446-8.446c2.415-2.682,3.898-6.222,3.898-10.116c0-8.362-6.778-15.141-15.141-15.141
			c-8.362,0-15.141,6.779-15.141,15.141c0,8.362,6.779,15.141,15.141,15.141c3.894,0,7.433-1.483,10.116-3.898l8.446,8.446
			C33.721,34.911,33.92,35,34.141,35c0.44,0,0.797-0.356,0.797-0.797C34.938,33.984,34.849,33.784,34.704,33.64z M15.016,28.626
			c-7.482,0-13.547-6.066-13.547-13.548S7.534,1.531,15.016,1.531s13.547,6.065,13.547,13.547S22.497,28.626,15.016,28.626z"/>
	</g>
</g>
</svg>
