<?xml version="1.0" encoding="iso-8859-1"?>
<!-- Generator: Adobe Illustrator 18.0.0, SVG Export Plug-In . SVG Version: 6.00 Build 0)  -->
<!DOCTYPE svg PUBLIC "-//W3C//DTD SVG 1.1//EN" "http://www.w3.org/Graphics/SVG/1.1/DTD/svg11.dtd">
<svg version="1.1" id="Capa_1" xmlns="http://www.w3.org/2000/svg" xmlns:xlink="http://www.w3.org/1999/xlink" x="0px" y="0px"
	 viewBox="0 0 309.143 309.143" style="enable-background:new 0 0 309.143 309.143;" xml:space="preserve">
<path style="fill:#ffffff;" d="M240.481,149.268L93.41,2.197c-2.929-2.929-7.678-2.929-10.606,0L68.661,16.34
	c-1.407,1.406-2.197,3.314-2.197,5.303c0,1.989,0.79,3.897,2.197,5.303l127.626,127.625L68.661,282.197
	c-1.407,1.406-2.197,3.314-2.197,5.303c0,1.989,0.79,3.897,2.197,5.303l14.143,14.143c1.464,1.464,3.384,2.197,5.303,2.197
	c1.919,0,3.839-0.732,5.303-2.197l147.071-147.071C243.411,156.946,243.411,152.197,240.481,149.268z"/>
<g>
</g>
<g>
</g>
<g>
</g>
<g>
</g>
<g>
</g>
<g>
</g>
<g>
</g>
<g>
</g>
<g>
</g>
<g>
</g>
<g>
</g>
<g>
</g>
<g>
</g>
<g>
</g>
<g>
</g>
</svg>
