<?xml version="1.0" encoding="iso-8859-1"?>
<!-- Generator: Adobe Illustrator 17.1.0, SVG Export Plug-In . SVG Version: 6.00 Build 0)  -->
<!DOCTYPE svg PUBLIC "-//W3C//DTD SVG 1.1//EN" "http://www.w3.org/Graphics/SVG/1.1/DTD/svg11.dtd">
<svg version="1.1" id="Layer_1" xmlns="http://www.w3.org/2000/svg" xmlns:xlink="http://www.w3.org/1999/xlink" x="0px" y="0px"
	 viewBox="0 0 16 18" style="enable-background:new 0 0 16 18;" xml:space="preserve">
<path fill="#000000" style="fill-rule:evenodd;clip-rule:evenodd;" d="M3.514,10.874l0.971-1.749l9,5l-0.971,1.748L3.514,10.874z"/>
<path fill="#000000" style="fill-rule:evenodd;clip-rule:evenodd;" d="M11.386,3.21l1.228,1.579l-9,7L2.386,10.21L11.386,3.21z"/>
<path fill="#000000" style="fill-rule:evenodd;clip-rule:evenodd;" d="M3,7c1.657,0,3,1.343,3,3c0,1.657-1.343,3-3,3c-1.657,0-3-1.343-3-3
	C0,8.343,1.343,7,3,7z"/>
<path fill="#000000" style="fill-rule:evenodd;clip-rule:evenodd;" d="M13,0c1.657,0,3,1.343,3,3s-1.343,3-3,3s-3-1.343-3-3S11.343,0,13,0z"/>
<path fill="#000000" style="fill-rule:evenodd;clip-rule:evenodd;" d="M13,12c1.657,0,3,1.343,3,3c0,1.657-1.343,3-3,3s-3-1.343-3-3
	C10,13.343,11.343,12,13,12z"/>
</svg>
