<?xml version="1.0" encoding="iso-8859-1"?>
<!-- Generator: Adobe Illustrator 17.1.0, SVG Export Plug-In . SVG Version: 6.00 Build 0)  -->
<!DOCTYPE svg PUBLIC "-//W3C//DTD SVG 1.1//EN" "http://www.w3.org/Graphics/SVG/1.1/DTD/svg11.dtd">
<svg version="1.1" id="Layer_1" xmlns="http://www.w3.org/2000/svg" xmlns:xlink="http://www.w3.org/1999/xlink" x="0px" y="0px"
	 viewBox="0 0 32 32" style="enable-background:new 0 0 32 32;" xml:space="preserve">
<path fill="#ffffff" style="fill-rule:evenodd;clip-rule:evenodd;" d="M28,32H4c-2.209,0-4-1.791-4-4V4c0-2.209,1.791-4,4-4h24c2.209,0,4,1.791,4,4
	v24C32,30.209,30.209,32,28,32z M30,4c0-1.105-0.895-2-2-2H4C2.895,2,2,2.895,2,4v24c0,1.105,0.895,2,2,2h24c1.105,0,2-0.895,2-2V4z
	 M27,15c-0.552,0-1-0.448-1-1l0.032-6.575l-6.788,6.788l-1.414-1.414L24.629,6L18,6c-0.552,0-1-0.448-1-1c0-0.552,0.448-1,1-1
	l8.972,0c0.28,0,0.531,0.116,0.712,0.301C27.878,4.465,28,4.704,28,5v9C28,14.552,27.552,15,27,15z M14,28l-8.972,0
	c-0.28,0-0.531-0.116-0.712-0.301C4.122,27.535,4,27.296,4,27v-9c0-0.552,0.448-1,1-1c0.552,0,1,0.448,1,1l-0.031,6.575l6.788-6.788
	l1.414,1.414L7.372,26L14,26c0.552,0,1,0.448,1,1C15,27.552,14.552,28,14,28z"/>
</svg>
