<?xml version="1.0" encoding="iso-8859-1"?>
<!-- Generator: Adobe Illustrator 17.1.0, SVG Export Plug-In . SVG Version: 6.00 Build 0)  -->
<!DOCTYPE svg PUBLIC "-//W3C//DTD SVG 1.1//EN" "http://www.w3.org/Graphics/SVG/1.1/DTD/svg11.dtd">
<svg version="1.1" id="Layer_1" xmlns="http://www.w3.org/2000/svg" xmlns:xlink="http://www.w3.org/1999/xlink" x="0px" y="0px"
	 viewBox="0 0 32 32" style="enable-background:new 0 0 32 32;" xml:space="preserve">
<path fill="#ffffff" style="fill-rule:evenodd;clip-rule:evenodd;" d="M28,32H4c-2.209,0-4-1.791-4-4V4c0-2.209,1.791-4,4-4h24c2.209,0,4,1.791,4,4
	v24C32,30.209,30.209,32,28,32z M30,4c0-1.105-0.895-2-2-2H4C2.895,2,2,2.896,2,4v24c0,1.105,0.895,2,2,2h24c1.105,0,2-0.895,2-2V4z
	 M15.461,22.44c-0.051,0.148-0.126,0.288-0.248,0.402c-0.403,0.378-1.036,0.357-1.413-0.046l-4.572-4.217
	c-0.378-0.403-0.357-1.036,0.046-1.413c0.403-0.378,1.036-0.357,1.413,0.046l3.578,3.3l6.395-11.077
	c0.276-0.478,0.888-0.642,1.366-0.366c0.478,0.276,0.642,0.888,0.366,1.366L15.461,22.44z"/>
</svg>
