<?xml version="1.0" encoding="iso-8859-1"?>
<!-- Generator: Adobe Illustrator 17.1.0, SVG Export Plug-In . SVG Version: 6.00 Build 0)  -->
<!DOCTYPE svg PUBLIC "-//W3C//DTD SVG 1.1//EN" "http://www.w3.org/Graphics/SVG/1.1/DTD/svg11.dtd">
<svg version="1.1" id="Layer_1" xmlns="http://www.w3.org/2000/svg" xmlns:xlink="http://www.w3.org/1999/xlink" x="0px" y="0px" width="32" height="32"
	 viewBox="0 0 33 33" style="enable-background:new 0 0 33 33;" xml:space="preserve">
<path fill="#ffffff" style="fill-rule:evenodd;clip-rule:evenodd;" d="M26,28.975V29H8v-0.025c-3.908-0.259-7-3.501-7-7.475
	c0-3.264,2.089-6.033,5-7.064V14l0,0c0-4.971,4.029-9,9-9s9,4.029,9,9h1l2,0.151c3.423,0.695,6,3.721,6,7.349
	C33,25.473,29.908,28.716,26,28.975z M8,16c-3.038,0-5,2.462-5,5.5S5.462,27,8.5,27h17c3.038,0,5.5-2.462,5.5-5.5S28.538,16,25.5,16
	H22v-2c0-3.645-3.355-6.6-7-6.6S8,10.355,8,14V16z"/>
</svg>
